<svg
    width="120.1"
    height="72.018"
    viewBox="0 0 120.1 72.018"
    xmlns="http://www.w3.org/2000/svg"
>
    <g
        id="svgGroup"
        stroke-linecap="round"
        fill-rule="evenodd"
        font-size="9pt"
        fill="#aad9d6"
    >
        <path
            d="M 81.7 0 L 63.6 0 L 63.6 47.1 C 63.5 80.3 120 80.3 120.1 47.1 L 120.1 0 L 102 0 L 102 47.1 C 101.903 58.194 82.77 58.492 81.743 47.994 A 9.172 9.172 0 0 1 81.7 47.1 L 81.7 0 Z M 53.3 47.7 L 53.3 0 L 19.5 0 L 19.5 16.2 L 35.6 16.2 L 35.6 47.7 A 6.509 6.509 0 0 1 31.568 53.472 A 10.526 10.526 0 0 1 27 54.5 C 23.649 54.5 20.125 53.166 18.192 50.013 A 9.954 9.954 0 0 1 16.9 46.5 L 0 50 A 25.675 25.675 0 0 0 3.544 60.244 A 26.126 26.126 0 0 0 26.3 71.8 A 27.028 27.028 0 0 0 51.249 57.398 A 23.009 23.009 0 0 0 53.3 47.7 Z"
            vector-effect="non-scaling-stroke"
        />
    </g>
</svg>